<?xml version="1.0" encoding="UTF-8" standalone="no"?>
<svg
   class="img-fluid"
   id="outputsvg"
   width="933.22369"
   height="78.912209"
   viewBox="0 0 9332.2369 789.12209"
   version="1.1"
   sodipodi:docname="Dead Soil Vector.svg"
   inkscape:version="1.2.2 (b0a84865, 2022-12-01)"
   xmlns:inkscape="http://www.inkscape.org/namespaces/inkscape"
   xmlns:sodipodi="http://sodipodi.sourceforge.net/DTD/sodipodi-0.dtd"
   xmlns="http://www.w3.org/2000/svg"
   xmlns:svg="http://www.w3.org/2000/svg">
  <defs
     id="defs74" />
  <sodipodi:namedview
     id="namedview72"
     pagecolor="#ffffff"
     bordercolor="#666666"
     borderopacity="1.0"
     inkscape:showpageshadow="2"
     inkscape:pageopacity="0.0"
     inkscape:pagecheckerboard="0"
     inkscape:deskcolor="#d1d1d1"
     showgrid="false"
     inkscape:zoom="1.3033473"
     inkscape:cx="465.72392"
     inkscape:cy="34.910112"
     inkscape:window-width="1390"
     inkscape:window-height="1097"
     inkscape:window-x="0"
     inkscape:window-y="44"
     inkscape:window-maximized="0"
     inkscape:current-layer="outputsvg" />
  <g
     id="l2IhS6Suzm7zHRZYbsIWqyz"
     fill="rgb(255,255,255)"
     style="fill:#000000"
     transform="translate(-121.52389,-764.44716)">
    <g
       style="fill:#000000"
       id="g68">
      <path
         id="pS4YsPpty"
         d="m 1500,1552 c 0,-14 51,-62 66,-62 9,0 14,-7 12,-17 -3,-13 -12,-17 -33,-16 -17,2 -48,4 -70,6 -22,2 -46,-1 -52,-6 -7,-5 -26,-7 -43,-5 -18,3 -31,0 -34,-8 -8,-21 20,-36 57,-29 40,8 52,-4 43,-41 -5,-18 -13,-24 -34,-24 -15,0 -33,5 -40,12 -8,8 -15,9 -22,2 -17,-17 7,-37 52,-43 l 43,-6 5,-115 c 3,-63 4,-148 2,-188 l -4,-73 -34,3 c -36,3 -61,-13 -49,-32 5,-7 21,-9 46,-5 l 39,7 v -36 c 0,-32 -3,-36 -35,-42 -20,-3 -34,-11 -32,-18 2,-7 49,-12 138,-13 74,-1 170,-4 214,-6 94,-6 151,12 166,50 17,46 11,143 -13,194 -22,46 -48,65 -48,34 0,-11 -8,-13 -31,-8 l -30,6 2,-51 c 3,-62 -14,-82 -69,-82 -21,0 -42,3 -46,7 -10,11 -36,14 -97,13 l -57,-1 -6,36 c -5,23 -3,42 5,51 14,17 64,18 108,3 24,-9 31,-17 31,-38 0,-15 3,-30 6,-34 8,-8 34,3 34,15 0,6 7,16 15,22 22,16 31,82 15,111 -8,14 -11,42 -8,69 6,54 -13,89 -45,84 -18,-2 -23,-11 -25,-45 l -3,-43 h -54 c -30,0 -56,3 -58,8 -3,4 -2,33 0,65 l 5,57 h 112 c 137,0 161,-11 134,-58 -38,-64 30,-112 81,-58 14,15 19,26 12,31 -14,8 -14,48 0,62 8,8 8,13 0,17 -12,8 -15,49 -5,58 3,4 18,-1 34,-10 31,-18 36,-17 42,13 2,13 -4,21 -17,23 -20,4 -75,58 -75,74 0,5 -12,14 -27,21 -16,6 -30,14 -33,17 -12,12 -52,31 -57,26 -3,-2 5,-18 18,-35 12,-17 19,-34 15,-38 -4,-4 -30,-7 -59,-8 -49,0 -53,2 -76,38 -18,27 -31,37 -50,37 -14,0 -38,7 -53,14 -16,8 -28,12 -28,8 z m 140,-414 c 0,-7 3,-23 6,-35 6,-22 4,-23 -74,-23 h -80 l 10,33 c 10,34 11,34 74,36 47,2 64,-1 64,-11 z m 208,-162 c 2,-28 0,-37 -10,-34 -7,3 -14,22 -16,42 -2,28 0,37 10,34 7,-3 14,-22 16,-42 z m 2,-91 c 0,-24 -5,-35 -15,-35 -10,0 -15,11 -15,35 0,24 5,35 15,35 10,0 15,-11 15,-35 z m -190,5 c 51,-8 69,-6 87,5 30,20 30,20 35,-14 4,-29 3,-29 -40,-29 -24,0 -82,-4 -129,-7 -91,-8 -103,-3 -103,42 0,23 3,23 150,3 z"
         style="fill:#000000" />
      <path
         id="pML6XL6Vr"
         d="m 2538,1482 c -44,-14 -48,-18 -48,-47 0,-17 5,-36 12,-43 9,-9 7,-16 -6,-31 -18,-20 -14,-41 8,-41 16,0 66,-52 66,-69 0,-7 6,-25 14,-39 15,-27 66,-156 66,-166 0,-2 5,-17 11,-33 20,-48 17,-73 -6,-73 -12,0 -34,-14 -50,-30 l -29,-30 h 37 c 19,0 38,-4 42,-10 3,-5 12,-7 20,-3 9,3 15,-1 15,-11 0,-9 -8,-16 -17,-17 -36,-2 -68,3 -71,12 -6,15 -28,10 -56,-14 -29,-25 -26,-37 9,-37 12,0 34,-9 48,-20 22,-18 31,-19 69,-10 24,5 60,10 80,10 41,0 68,21 68,51 0,11 7,27 16,36 8,9 14,25 12,37 -1,11 1,27 5,33 7,11 37,94 54,147 4,11 25,57 49,103 36,72 40,85 28,100 -21,28 -17,33 27,33 38,0 41,2 35,24 -3,13 -1,38 6,56 10,30 9,35 -13,52 -16,12 -32,16 -49,12 -14,-3 -53,-5 -88,-4 -34,1 -71,-2 -82,-5 -23,-7 -27,-25 -6,-25 11,0 14,-10 13,-34 -2,-19 -6,-38 -10,-42 -12,-12 14,-34 40,-34 18,0 24,-5 21,-17 -3,-16 -19,-19 -121,-23 -107,-5 -117,-4 -117,13 0,9 11,22 24,28 27,13 40,48 36,94 -2,36 -16,47 -50,41 -17,-3 -31,3 -45,19 -20,22 -21,22 -67,7 z m 312,-254 c 0,-7 -7,-21 -14,-30 -18,-25 -151,-26 -160,-2 -16,41 -9,44 84,44 66,0 90,-3 90,-12 z m -30,-96 c 0,-22 -43,-141 -49,-138 -4,3 -14,24 -21,48 -7,24 -18,49 -23,55 -19,25 1,43 48,43 25,0 45,-4 45,-8 z"
         style="fill:#000000" />
      <path
         id="ptEzdiLzX"
         d="m 256,1473 c -4,-5 -24,-8 -44,-8 h -37 v -47 c 0,-25 -3,-49 -7,-53 -15,-16 13,-43 52,-50 35,-6 41,-11 49,-42 5,-19 8,-40 5,-46 -2,-7 -6,-52 -8,-102 -2,-49 -7,-109 -11,-132 -7,-39 -10,-43 -36,-43 -37,0 -43,-12 -19,-42 10,-14 18,-34 17,-45 -1,-17 -6,-19 -43,-15 -48,5 -68,-13 -39,-34 14,-11 58,-13 184,-11 l 166,2 52,48 c 99,93 101,99 119,340 6,83 -17,139 -85,204 -46,45 -65,51 -171,57 -36,2 -78,9 -93,15 -33,13 -41,14 -51,4 z m 173,-168 c 47,-6 59,-13 98,-54 36,-38 43,-52 41,-81 -1,-20 1,-41 5,-47 8,-13 -25,-75 -62,-116 -36,-40 -70,-56 -135,-63 l -56,-7 5,159 c 7,201 11,226 33,220 9,-2 41,-8 71,-11 z M 540,934 c 0,-31 -51,-77 -90,-81 -14,-2 -51,-6 -82,-9 l -58,-6 v 31 c 0,30 1,31 45,31 46,0 129,16 155,31 18,10 30,11 30,3 z"
         style="fill:#000000" />
      <path
         id="p4gOW2ChF"
         d="m 8905,1467 c -24,-19 -11,-37 27,-37 32,0 33,-4 12,-76 -4,-16 1,-24 24,-33 16,-7 35,-11 43,-9 20,4 37,-126 21,-153 -10,-16 -9,-23 8,-41 39,-43 13,-159 -39,-166 -12,-2 -33,-14 -48,-28 l -26,-24 h 77 77 l -3,-38 c -3,-32 -6,-37 -28,-37 -14,0 -30,4 -37,8 -7,5 -21,6 -33,2 -17,-5 -19,-10 -9,-21 9,-11 42,-14 146,-14 153,0 159,4 117,68 -29,44 -47,49 -24,7 17,-32 2,-50 -33,-41 -30,7 -44,55 -21,72 19,15 18,44 -3,60 -16,11 -18,31 -17,173 0,88 4,164 8,168 4,5 49,8 99,8 72,0 91,-3 89,-14 -4,-19 8,-52 18,-46 13,8 28,-18 32,-54 2,-19 11,-39 21,-45 15,-9 21,-6 37,14 18,23 18,26 2,35 -13,7 -18,27 -21,75 -1,36 -9,76 -16,90 -8,14 -20,36 -27,50 -7,14 -18,30 -23,36 -10,10 -107,11 -344,1 -36,-1 -56,2 -59,11 -5,16 -24,15 -47,-1 z"
         style="fill:#000000" />
      <path
         id="p13uboomSA"
         d="m 5664,1461 c -100,-8 -134,-27 -134,-76 0,-24 -6,-37 -20,-45 -22,-12 -29,-73 -10,-85 6,-3 10,-17 10,-30 0,-34 10,-55 27,-55 10,0 14,9 12,34 -3,28 3,41 28,65 70,67 244,69 226,3 -4,-16 -127,-82 -153,-82 -7,0 -46,-17 -87,-37 l -73,-37 v -75 c 0,-63 5,-86 30,-139 19,-41 40,-68 60,-80 16,-9 30,-20 30,-24 0,-5 54,-8 119,-8 h 119 l 11,30 c 5,17 8,37 5,44 -3,8 -1,17 5,21 6,3 11,21 11,39 0,25 -7,38 -25,50 -19,12 -25,25 -25,51 0,26 6,39 25,51 14,9 25,23 25,30 0,8 4,14 9,14 11,0 54,89 65,134 5,22 1,37 -20,67 -14,21 -24,45 -21,52 10,25 -35,67 -83,76 -25,5 -54,11 -65,14 -11,2 -56,1 -101,-2 z m 176,-279 c 0,-20 -59,-61 -106,-75 -28,-8 -60,-20 -70,-25 -27,-15 -84,-32 -84,-25 0,24 143,106 215,124 42,10 45,10 45,1 z m -50,-156 c 0,-45 -20,-65 -82,-85 -53,-16 -65,-17 -77,-6 -12,12 -11,17 10,34 13,11 32,20 42,21 10,0 17,8 17,19 0,15 8,21 33,24 17,2 38,5 45,5 6,1 12,-4 12,-12 z m 17,-154 c -32,-39 -97,-51 -157,-30 -32,10 -32,12 -14,26 18,14 18,14 -3,9 -14,-3 -23,0 -23,7 0,7 20,11 58,12 32,0 70,7 86,16 28,15 31,14 47,-6 13,-15 14,-24 6,-34 z"
         style="fill:#000000" />
      <path
         id="pP0FxSOof"
         d="m 6756,1461 c -4,-6 -15,-11 -25,-11 -28,0 -96,-70 -126,-130 -15,-30 -31,-62 -36,-70 -32,-53 -33,-60 -11,-89 11,-15 26,-48 32,-72 14,-52 26,-69 50,-69 20,0 42,-42 46,-89 2,-19 12,-46 22,-60 10,-14 22,-38 25,-53 6,-24 13,-27 65,-34 81,-11 120,-9 177,8 45,13 51,18 66,58 10,26 26,48 42,57 27,14 38,55 17,68 -15,9 -12,52 5,85 11,22 12,35 4,59 -6,17 -15,31 -20,31 -5,0 -9,10 -9,23 0,44 -70,207 -88,207 -5,0 -15,11 -22,25 -7,14 -19,25 -27,25 -7,0 -13,4 -13,9 0,17 -165,38 -174,22 z m 152,-148 c 12,-3 22,-8 22,-12 0,-3 16,-15 34,-25 23,-12 37,-28 41,-47 8,-35 2,-45 -29,-53 -14,-3 -37,-11 -52,-16 -25,-10 -26,-11 -10,-29 10,-11 31,-25 47,-31 35,-15 36,-27 6,-71 -51,-76 -108,-91 -169,-46 -16,12 -35,17 -48,14 -27,-7 -83,52 -85,91 -3,44 33,108 83,149 25,21 59,51 75,66 19,19 35,26 46,21 9,-3 26,-9 39,-11 z m 142,-279 c 0,-37 -37,-94 -61,-94 -23,0 -26,28 -3,37 8,3 22,23 31,44 18,45 33,51 33,13 z M 6928,890 c 28,0 52,-4 52,-8 0,-14 -52,-35 -105,-42 -66,-9 -107,3 -122,36 l -12,27 67,-7 c 37,-3 91,-6 120,-6 z"
         style="fill:#000000" />
      <path
         id="pqKYdVCQX"
         d="m 3801,1453 c -58,-4 -85,-22 -87,-59 0,-13 -6,-30 -13,-38 -11,-13 -8,-16 16,-22 42,-10 54,-23 47,-51 -4,-16 -2,-28 6,-33 22,-14 31,-136 18,-237 -8,-68 -12,-72 -59,-79 -53,-9 -51,-38 4,-42 48,-4 50,-29 3,-38 -35,-6 -54,-28 -34,-40 6,-4 43,-9 82,-12 39,-2 76,-8 82,-13 14,-11 150,16 186,37 25,15 75,77 91,114 14,33 32,54 73,89 13,11 15,25 9,77 -5,49 -4,64 6,64 10,0 10,3 1,12 -7,7 -12,20 -12,29 0,9 -7,22 -15,29 -11,9 -12,17 -5,30 16,31 11,57 -14,74 -48,31 -97,56 -110,56 -7,0 -33,11 -57,24 -47,25 -123,35 -218,29 z m 152,-156 c 21,-8 43,-19 49,-25 7,-7 20,-12 29,-12 17,0 49,-30 33,-30 -5,0 -1,-5 9,-11 15,-9 17,-19 11,-72 -4,-34 -10,-66 -14,-72 -4,-5 -10,-23 -14,-38 -5,-19 -16,-32 -36,-39 -17,-5 -30,-13 -30,-17 0,-7 -33,-19 -96,-36 -13,-3 -27,2 -40,16 -16,18 -19,37 -19,128 0,67 4,104 10,101 6,-3 10,-34 11,-70 1,-92 12,-140 31,-140 12,0 13,5 7,23 -4,12 -7,50 -5,85 1,34 -3,72 -10,83 -7,13 -8,43 -4,80 8,66 12,68 78,46 z m 108,-374 c -26,-44 -44,-56 -110,-72 -39,-10 -73,-16 -75,-14 -2,3 0,17 5,32 9,26 21,31 80,32 15,0 44,9 65,19 47,24 47,24 35,3 z"
         style="fill:#000000" />
      <path
         id="pYRwyJytD"
         d="m 7810,1454 c 0,-3 14,-19 30,-36 24,-24 28,-33 19,-44 -6,-8 -8,-21 -4,-31 5,-10 8,-21 7,-24 -1,-4 19,-4 43,-1 51,5 79,-3 69,-19 -4,-7 -6,-91 -6,-186 l 2,-175 -53,5 c -28,3 -61,6 -72,8 -16,3 -20,-1 -20,-21 v -25 l 98,1 h 98 l -3,-35 -3,-36 -78,3 c -71,2 -78,1 -75,-15 3,-16 18,-18 180,-18 97,0 180,4 184,8 18,17 -24,27 -88,21 l -68,-7 v 42 42 l 51,-3 c 43,-3 52,0 54,15 3,18 -13,25 -75,29 l -35,3 2,180 1,180 74,3 c 87,4 104,15 66,43 -15,11 -25,26 -22,33 3,8 0,17 -5,21 -6,3 -8,11 -5,17 4,6 0,14 -7,19 -15,9 -359,13 -359,3 z"
         style="fill:#000000" />
      <path
         id="phCBFMMr9"
         d="m 7204,1391 c -11,-3 -33,-16 -50,-28 -24,-19 -27,-24 -14,-33 8,-6 26,-8 40,-5 14,4 37,9 53,12 18,3 27,12 27,24 0,23 -28,38 -56,30 z"
         style="fill:#000000" />
      <path
         id="pMlQ6xrbL"
         d="m 1952,1338 c -19,-19 -14,-38 9,-38 15,0 19,-5 15,-15 -6,-17 22,-35 57,-35 30,0 32,29 2,40 -12,5 -31,20 -43,34 -23,30 -24,30 -40,14 z"
         style="fill:#000000" />
      <path
         id="pnjcOyVwc"
         d="m 7265,1260 c -4,-6 -16,-8 -26,-5 -11,4 -27,1 -35,-6 -13,-10 -12,-14 2,-30 12,-13 13,-19 5,-19 -15,0 -51,-42 -45,-52 7,-10 89,-21 111,-14 15,5 18,13 15,36 -2,17 -9,30 -15,30 -7,0 -7,4 1,12 14,14 16,58 3,58 -6,0 -13,-5 -16,-10 z m -5,-34 c 0,-3 -5,-8 -12,-12 -7,-4 -8,-3 -4,4 7,12 16,16 16,8 z"
         style="fill:#000000" />
      <path
         id="pZ9ZGAz3w"
         d="m 1910,1200 c 0,-20 33,-40 50,-30 9,6 6,10 -11,15 -13,4 -27,13 -31,19 -5,7 -8,6 -8,-4 z"
         style="fill:#000000" />
      <path
         id="p8rQwj2yX"
         d="m 1990,1138 c 0,-7 5,-20 10,-28 8,-12 10,-11 10,7 0,12 -4,25 -10,28 -5,3 -10,0 -10,-7 z"
         style="fill:#000000" />
    </g>
  </g>
</svg>
